<?xml version="1.0" standalone="no"?>
<!DOCTYPE svg PUBLIC "-//W3C//DTD SVG 20010904//EN"
 "http://www.w3.org/TR/2001/REC-SVG-20010904/DTD/svg10.dtd">
<svg version="1.0" xmlns="http://www.w3.org/2000/svg"
 width="420.000000pt" height="540.000000pt" viewBox="0 0 420.000000 540.000000"
 preserveAspectRatio="xMidYMid meet">

<g transform="translate(0.000000,540.000000) scale(0.100000,-0.100000)"
fill="#000000" stroke="none">
<path d="M0 2700 l0 -2700 2100 0 2100 0 0 2700 0 2700 -2100 0 -2100 0 0
-2700z m2252 1629 c20 0 42 -6 48 -14 7 -8 21 -15 32 -15 11 0 44 -24 73 -53
29 -30 60 -57 69 -60 9 -4 19 -20 22 -37 4 -16 10 -30 14 -30 9 0 31 -68 34
-107 1 -17 -2 -30 -6 -27 -4 3 -8 0 -8 -5 0 -6 5 -11 11 -11 6 0 9 -7 5 -15
-3 -8 3 -20 13 -27 9 -7 20 -20 24 -30 5 -14 1 -15 -22 -8 -20 5 -28 4 -28 -5
0 -7 6 -11 13 -8 6 2 15 -1 19 -8 6 -8 -1 -10 -23 -7 -17 2 -29 1 -26 -3 2 -4
-1 -20 -8 -34 -11 -25 -16 -27 -56 -22 -31 3 -45 1 -49 -9 -3 -8 -10 -14 -17
-14 -6 0 -29 -9 -51 -20 -22 -11 -48 -20 -58 -20 -11 0 -28 -9 -38 -21 -13
-16 -22 -18 -36 -11 -22 12 -74 -10 -54 -23 7 -4 10 -13 7 -21 -3 -7 -1 -16 3
-19 5 -3 8 -18 7 -34 -2 -24 1 -27 19 -23 19 4 19 4 -2 -12 -21 -16 -22 -23
-7 -80 5 -21 4 -27 -5 -22 -6 4 -11 14 -11 22 0 8 -4 14 -9 14 -10 0 -5 -43 8
-69 5 -9 6 -23 3 -31 -5 -13 -3 -13 13 0 10 8 20 14 21 12 2 -2 17 -7 33 -12
24 -7 29 -5 24 6 -3 8 -9 14 -13 14 -4 0 -11 7 -14 16 -6 15 -4 15 11 3 15
-12 16 -12 10 5 -6 14 -4 16 5 9 7 -6 24 -14 38 -18 22 -7 23 -6 11 9 -12 14
-10 16 20 15 52 -2 84 -14 83 -31 -1 -10 6 -16 17 -15 11 1 19 7 19 13 0 23
39 27 58 5 17 -20 17 -20 67 5 27 13 57 23 65 22 9 -2 22 11 33 35 26 60 22
73 -21 68 -7 -1 -32 7 -55 17 -48 23 -142 40 -117 21 12 -8 8 -9 -15 -4 -87
19 -112 17 -197 -20 -10 -4 -18 -3 -18 2 0 13 60 37 145 59 68 17 103 20 172
14 29 -3 31 -4 15 -16 -16 -13 -16 -13 2 -14 10 0 27 -10 37 -22 11 -11 22
-18 25 -15 4 4 20 -3 36 -14 18 -13 39 -19 54 -16 13 2 24 0 24 -5 0 -5 7 -25
15 -46 13 -30 18 -34 26 -22 9 12 10 11 5 -4 -4 -11 -1 -23 6 -28 11 -6 10 -8
0 -8 -10 0 -10 -4 2 -16 9 -8 16 -23 16 -32 -1 -15 -3 -14 -15 2 -14 18 -15
16 -17 -27 -1 -26 -2 -55 -2 -64 -1 -10 -5 -21 -11 -25 -6 -5 -5 -8 3 -8 6 0
12 -7 12 -15 0 -8 -5 -15 -11 -15 -8 0 -8 -4 0 -14 9 -11 8 -18 -4 -30 -9 -9
-21 -16 -27 -16 -7 0 -6 -5 2 -15 13 -16 6 -33 -22 -53 -14 -10 -16 -17 -8
-33 7 -13 7 -19 0 -19 -14 0 -13 -27 3 -33 9 -3 8 -8 -4 -18 -9 -8 -19 -21
-22 -29 -4 -11 -6 -11 -6 3 -1 10 -6 17 -12 15 -6 -2 -10 -7 -10 -11 1 -4 1
-14 1 -22 0 -8 7 -15 16 -15 13 0 14 -2 0 -21 -8 -12 -12 -28 -9 -35 3 -9 -2
-14 -16 -14 -22 0 -25 -11 -12 -44 6 -15 10 -16 16 -7 4 8 2 16 -5 21 -8 5 -8
10 -2 14 5 3 13 -2 16 -11 8 -20 -23 -83 -40 -83 -7 0 -14 -6 -17 -14 -3 -7
-15 -16 -27 -19 -17 -4 -21 -1 -20 16 3 35 1 40 -13 28 -10 -8 -19 -7 -33 4
-16 13 -16 14 -1 9 9 -3 17 -1 17 5 0 6 -7 11 -15 11 -8 0 -15 6 -15 13 0 7
-10 19 -21 27 -12 8 -27 20 -33 25 -6 6 -20 11 -32 12 -12 1 -36 15 -55 32
-19 17 -39 29 -46 26 -18 -6 -43 5 -43 20 0 7 -6 15 -14 18 -9 4 -12 18 -11
41 3 34 2 36 -28 36 -37 -1 -76 -25 -55 -33 9 -4 6 -11 -12 -25 -13 -11 -28
-18 -32 -16 -10 7 -51 -6 -44 -13 12 -12 -24 -34 -40 -25 -12 7 -13 11 -5 17
14 8 -3 35 -22 35 -6 0 -19 7 -29 16 -10 9 -50 25 -90 34 -85 20 -92 32 -57
93 22 40 36 107 22 107 -17 -1 -74 -90 -80 -125 -5 -28 -1 -43 17 -68 24 -33
47 -51 65 -52 21 0 9 -30 -15 -35 -14 -3 -44 -15 -67 -28 -23 -12 -49 -22 -57
-22 -8 0 -16 -5 -18 -12 -4 -10 -20 -14 -65 -17 -7 -1 -13 -8 -13 -16 0 -8 -4
-15 -9 -15 -12 0 -41 -58 -41 -82 0 -10 4 -18 9 -18 5 0 14 -13 20 -30 5 -16
15 -30 22 -30 9 0 9 -3 0 -14 -6 -8 -10 -19 -9 -26 2 -7 -3 -15 -10 -17 -7 -3
-12 -1 -11 4 4 23 -2 35 -17 29 -8 -3 -12 -2 -9 3 3 5 1 12 -5 16 -5 3 -10 -1
-10 -9 0 -10 -6 -13 -15 -9 -14 5 -14 7 0 23 17 19 21 45 5 35 -6 -4 -8 -10
-5 -15 8 -12 -33 -33 -51 -26 -13 5 -13 9 1 30 15 22 14 24 -5 29 -22 6 -38
-8 -18 -16 9 -4 10 -6 1 -6 -6 -1 -15 4 -18 9 -3 6 -11 10 -16 10 -5 0 2 -17
16 -37 l25 -38 -22 -8 c-12 -4 -25 -13 -29 -19 -4 -7 -9 -7 -13 1 -4 6 -2 11
5 11 7 0 9 9 6 22 -4 12 -1 28 5 35 8 9 7 13 -2 13 -6 0 -14 -9 -17 -20 -3
-11 -13 -20 -22 -20 -14 0 -14 2 -1 10 13 8 13 10 -1 10 -9 0 -16 7 -16 15 0
8 5 11 10 8 5 -3 7 0 5 8 -3 8 -16 13 -29 12 -13 -1 -18 0 -11 3 6 3 12 10 12
15 0 6 -5 7 -11 3 -8 -4 -8 0 0 15 10 17 9 21 -4 21 -8 0 -15 9 -15 20 0 10
-7 23 -16 28 -12 7 -14 15 -8 33 4 13 7 29 5 34 -2 6 -4 15 -6 20 -1 6 -7 23
-13 38 -15 35 -15 40 -2 32 6 -3 10 -2 10 4 0 5 3 17 7 27 5 14 2 16 -19 12
-25 -5 -31 12 -14 41 5 7 3 18 -3 24 -28 28 -5 281 44 493 8 36 15 81 15 100
0 19 3 33 8 31 4 -3 8 5 8 16 1 12 5 38 9 57 9 45 13 72 14 88 1 6 7 12 14 12
9 0 13 16 12 58 -1 31 3 68 8 82 5 14 10 33 13 44 5 25 32 66 44 66 6 0 10 7
10 15 0 8 6 12 13 9 7 -2 19 7 27 21 14 26 30 33 30 13 0 -6 6 -4 13 6 7 9 17
16 22 15 6 -2 21 3 34 10 13 7 40 14 60 15 20 1 49 8 65 15 16 6 35 10 43 7 7
-3 13 -1 13 4 0 4 53 7 118 6 64 -2 122 1 127 5 15 11 82 17 135 12 25 -2 61
-4 82 -4z m-1107 -794 c14 -19 21 -36 16 -40 -5 -3 -12 4 -16 15 -8 24 -41 44
-61 36 -17 -6 -18 6 -3 21 16 16 34 7 64 -32z m1247 -40 c18 -7 40 -10 50 -6
23 8 59 61 51 74 -7 12 15 0 39 -21 41 -34 -50 -89 -126 -76 -53 8 -116 33
-116 46 0 5 12 21 27 36 l27 27 8 -33 c6 -24 18 -37 40 -47z m58 55 c0 -5 -4
-10 -10 -10 -5 0 -10 5 -10 10 0 6 5 10 10 10 6 0 10 -4 10 -10z m-230 -25 c0
-8 -6 -15 -13 -15 -8 0 -14 7 -14 15 0 8 6 15 14 15 7 0 13 -7 13 -15z m897 9
c-3 -3 -12 -4 -19 -1 -8 3 -5 6 6 6 11 1 17 -2 13 -5z m-877 -24 c-6 -11 -13
-20 -16 -20 -2 0 0 9 6 20 6 11 13 20 16 20 2 0 0 -9 -6 -20z m810 -11 c-12
-16 -25 -28 -28 -25 -5 6 36 56 45 56 3 0 -5 -14 -17 -31z m59 -28 c32 -21 3
-215 -39 -254 -10 -10 -11 -8 -6 8 3 11 7 41 8 67 2 27 5 48 8 48 12 0 4 90
-7 94 -18 7 -22 -4 -28 -75 -11 -126 -12 -184 -4 -201 15 -29 -24 -107 -53
-108 -18 0 -6 28 13 33 20 5 21 10 14 69 -8 66 -31 138 -46 138 -4 0 -11 16
-15 35 -5 26 -1 41 16 65 12 16 28 30 36 30 8 0 14 7 14 16 0 10 6 14 14 11 9
-4 17 2 21 14 7 20 31 25 54 10z m-138 -54 c-18 -18 -23 -1 -9 29 13 28 13 28
16 5 2 -13 -1 -28 -7 -34z m-1777 2 c-2 -65 -4 -79 -11 -79 -5 0 -8 27 -9 60
-1 40 3 59 10 57 6 -2 11 -19 10 -38z m-143 -42 c-13 -13 -14 5 -3 43 l7 25 3
-29 c2 -16 -1 -33 -7 -39z m2116 -9 c-3 -8 -6 -5 -6 6 -1 11 2 17 5 13 3 -3 4
-12 1 -19z m-1981 -84 c-7 -51 -16 -55 -16 -6 0 23 5 42 10 42 6 0 8 -16 6
-36z m1964 -14 c-16 -30 -22 -19 -7 13 6 14 13 22 15 17 2 -5 -2 -19 -8 -30z
m-1965 -95 c-3 -26 -9 -45 -12 -42 -2 3 -1 26 2 52 4 25 10 44 12 41 3 -3 2
-26 -2 -51z m1575 -65 c0 -5 -7 -10 -16 -10 -8 0 -12 5 -9 10 3 6 10 10 16 10
5 0 9 -4 9 -10z m-1470 -173 c0 -5 -4 -5 -10 -2 -5 3 -10 14 -10 23 0 15 2 15
10 2 5 -8 10 -19 10 -23z m-105 -45 c23 -26 33 -27 57 -5 17 15 18 14 18 -15
0 -17 -5 -34 -10 -37 -16 -10 -50 5 -50 21 0 8 -7 14 -15 14 -17 0 -35 31 -34
57 0 14 2 15 7 3 4 -8 16 -25 27 -38z m1760 -24 c11 2 30 10 43 18 30 19 31
-4 1 -30 -16 -13 -30 -16 -55 -11 -36 6 -42 22 -27 75 7 22 8 21 13 -15 4 -33
8 -39 25 -37z m-225 22 c0 -5 -5 -10 -11 -10 -5 0 -7 5 -4 10 3 6 8 10 11 10
2 0 4 -4 4 -10z m-1400 -34 c0 -2 -9 -6 -20 -9 -11 -3 -18 -1 -14 4 5 9 34 13
34 5z m684 -15 c43 -16 54 -17 93 -5 38 12 47 11 59 0 12 -12 9 -15 -19 -21
-17 -4 -37 -11 -43 -16 -6 -5 -36 -4 -70 2 -32 7 -72 13 -89 14 -16 1 -31 3
-33 4 -6 2 23 28 38 34 8 3 15 6 15 6 0 1 22 -7 49 -18z m539 -98 c-7 -3 -13
-12 -13 -21 0 -15 2 -15 10 -2 5 8 10 12 10 8 0 -3 3 -14 6 -22 5 -12 2 -15
-10 -10 -9 3 -16 2 -16 -3 0 -6 -11 -15 -25 -21 -18 -9 -26 -8 -31 1 -4 7 -4
9 0 5 9 -8 46 22 46 37 0 5 -5 3 -11 -5 -9 -12 -10 -11 -4 5 3 11 7 25 8 30 3
17 21 25 32 13 7 -7 6 -12 -2 -15z m-367 3 c3 -9 10 -14 14 -11 5 3 12 1 15
-5 4 -6 15 -8 26 -5 15 5 19 1 19 -20 0 -15 4 -24 10 -20 18 11 11 -17 -7 -31
-21 -16 -59 -18 -68 -4 -4 6 -22 9 -41 7 -19 -3 -37 0 -40 4 -3 5 -15 4 -26
-2 -15 -8 -22 -8 -28 1 -4 6 -18 10 -31 9 -13 -2 -30 0 -37 5 -9 5 -23 0 -39
-15 -16 -15 -24 -18 -21 -9 4 10 0 16 -11 16 -9 0 -27 4 -40 8 -20 7 -23 5
-18 -8 4 -9 2 -16 -3 -16 -6 0 -10 9 -10 20 0 11 -5 20 -11 20 -24 0 10 26 37
28 15 1 32 6 39 12 6 5 38 12 71 16 32 3 60 7 61 7 1 1 31 3 67 5 53 3 67 0
72 -12z m134 -70 c0 -2 -7 -6 -15 -10 -8 -3 -15 -1 -15 4 0 6 7 10 15 10 8 0
15 -2 15 -4z m-833 -21 c0 -8 -4 -12 -9 -9 -5 3 -6 10 -3 15 9 13 12 11 12 -6z
m213 -9 c0 -7 4 -6 9 2 6 11 10 10 15 -3 5 -14 2 -16 -16 -11 -13 3 -26 6 -29
6 -4 0 -9 6 -12 14 -4 10 0 12 14 9 10 -3 19 -10 19 -17z m138 -22 c7 -8 16
-14 20 -15 94 -8 125 -8 114 3 -16 16 -16 33 1 21 17 -14 57 -23 57 -12 0 4 6
6 13 4 10 -4 49 -9 117 -14 13 -1 13 -2 0 -11 -13 -8 -12 -10 3 -10 9 0 17 5
17 10 0 6 3 9 8 9 20 -3 32 2 27 12 -5 7 5 8 32 4 25 -4 34 -3 24 3 -10 7 -1
11 32 13 37 3 47 1 50 -13 3 -10 0 -16 -6 -15 -6 1 -13 -8 -15 -20 -2 -16 2
-23 13 -23 9 0 13 5 10 11 -4 6 2 5 14 -2 14 -9 17 -16 9 -20 -7 -4 -15 -6
-19 -3 -4 2 -6 -4 -4 -13 1 -10 0 -22 -3 -28 -4 -5 -7 -23 -8 -40 -2 -41 -3
-42 -15 -25 -8 12 -9 9 -4 -9 6 -21 4 -23 -14 -18 -11 3 -21 1 -21 -4 0 -5 -5
-9 -10 -9 -6 0 -5 8 2 19 7 11 16 17 20 15 4 -3 8 0 8 5 0 14 -11 13 -31 -2
-11 -8 -17 -27 -17 -49 0 -41 -9 -61 -23 -53 -5 4 -9 0 -9 -8 0 -7 -7 -14 -15
-14 -8 0 -15 7 -15 16 0 10 -5 7 -13 -9 -15 -30 -66 -38 -84 -13 -11 14 -13
15 -13 1 0 -11 -9 -14 -36 -13 -20 1 -39 7 -43 13 -4 6 -21 12 -39 14 -20 1
-32 8 -32 16 0 8 -6 12 -15 8 -8 -3 -14 0 -12 7 1 7 -6 12 -15 12 -10 0 -17 5
-15 10 1 6 5 9 9 8 12 -4 9 15 -3 23 -6 3 -15 1 -19 -6 -6 -9 -12 0 -19 26
-14 49 -14 64 0 64 5 0 7 5 3 11 -4 8 -13 4 -25 -12 -9 -13 -15 -28 -11 -34 3
-5 -1 -4 -10 3 -10 8 -14 21 -10 34 3 14 1 19 -6 14 -6 -3 -16 2 -21 13 -6 11
-18 27 -27 35 -8 9 -11 16 -6 16 5 0 17 -9 27 -20 19 -21 50 -26 60 -10 4 6 3
9 -2 8 -12 -4 -55 33 -71 61 -10 17 -10 26 -2 37 10 11 17 11 43 -3 17 -8 37
-22 45 -29z m-318 26 c0 -5 -5 -10 -11 -10 -5 0 -7 5 -4 10 3 6 8 10 11 10 2
0 4 -4 4 -10z m400 -16 c0 -8 -6 -11 -15 -8 -8 4 -15 12 -15 20 0 8 6 11 15 8
8 -4 15 -12 15 -20z m270 2 c0 -3 -4 -8 -10 -11 -5 -3 -10 -1 -10 4 0 6 5 11
10 11 6 0 10 -2 10 -4z m-445 -27 c-7 -11 -35 -12 -35 -1 0 4 9 8 20 9 11 1
18 -2 15 -8z m645 -83 c0 -3 -4 -8 -10 -11 -5 -3 -10 -1 -10 4 0 6 5 11 10 11
6 0 10 -2 10 -4z m-550 -86 c0 -11 -4 -20 -9 -20 -5 0 -7 9 -4 20 3 11 7 20 9
20 2 0 4 -9 4 -20z m693 -365 c26 10 88 12 93 4 3 -5 -1 -9 -8 -9 -11 0 -11
-2 0 -9 14 -9 7 -61 -9 -61 -5 0 -7 -11 -5 -25 3 -14 1 -25 -2 -25 -9 0 -33
-55 -38 -85 -2 -11 -6 -29 -8 -40 -3 -11 -5 -26 -5 -32 -1 -7 -8 -13 -16 -13
-8 0 -12 -6 -9 -14 3 -8 -3 -23 -13 -33 -11 -11 -17 -25 -15 -31 2 -7 -2 -12
-8 -12 -7 0 -10 -7 -6 -15 3 -9 -2 -20 -13 -27 -15 -9 -17 -17 -11 -34 5 -12
6 -24 3 -27 -5 -5 -8 -29 -12 -88 -1 -19 -45 -69 -60 -69 -6 0 -8 -7 -5 -15 4
-10 0 -15 -15 -15 -12 0 -21 -4 -21 -8 0 -5 -12 -15 -27 -23 -42 -21 -113 -72
-148 -107 -20 -20 -27 -22 -46 -12 -14 8 -19 8 -15 1 5 -7 -2 -11 -18 -11 -18
0 -26 5 -26 18 0 11 -3 13 -8 5 -5 -8 -15 -4 -34 12 -15 13 -24 26 -20 29 3 4
-4 9 -16 13 -12 3 -19 9 -16 14 3 5 -2 9 -10 9 -9 0 -16 5 -16 10 0 6 -7 10
-15 10 -8 0 -15 7 -15 16 0 9 -15 31 -32 48 -18 17 -34 34 -34 38 -4 21 -6 21
-15 -1 -8 -19 -12 -21 -24 -11 -8 7 -15 18 -14 24 4 30 -3 46 -23 57 -21 11
-22 11 -9 -5 15 -18 23 -56 11 -56 -3 0 -24 18 -45 40 -21 22 -35 40 -30 40 6
0 4 4 -4 9 -19 12 -24 44 -6 37 9 -3 12 0 9 9 -3 7 -16 16 -30 19 -23 6 -44
49 -30 63 3 4 6 -4 6 -17 0 -17 3 -20 13 -12 10 8 20 5 39 -13 14 -13 29 -21
32 -18 3 4 6 2 6 -4 0 -12 89 -49 108 -45 6 2 12 -3 12 -10 0 -7 6 -4 12 6 9
15 7 22 -7 32 -10 7 -15 20 -12 28 4 9 0 19 -7 23 -12 8 -19 19 -63 102 -10
19 -28 45 -41 58 -13 13 -20 28 -17 33 3 6 1 10 -4 10 -6 0 -11 5 -11 11 0 6
7 8 17 5 14 -6 13 -2 -5 16 -15 16 -21 35 -20 59 1 20 -3 42 -7 50 -8 12 -6
12 8 0 22 -17 22 -3 0 21 -16 18 -16 18 3 12 16 -6 15 -3 -6 20 l-25 27 25 -9
c14 -6 57 -28 95 -49 77 -42 142 -66 150 -53 3 4 22 4 42 -1 35 -7 97 -3 116
8 4 2 7 -2 7 -9 0 -9 3 -10 8 -2 7 11 78 29 96 25 5 -1 13 4 17 11 7 11 9 10
9 -1 0 -10 6 -9 27 4 24 16 26 16 20 1 -6 -14 -2 -16 21 -13 16 3 37 9 48 15
10 5 37 15 59 22 22 7 43 17 47 23 3 6 15 12 25 13 9 2 20 9 22 16 3 9 5 10 8
1 3 -7 10 -10 16 -8z m-648 -665 c3 -6 -1 -7 -9 -4 -18 7 -21 14 -7 14 6 0 13
-4 16 -10z m315 -390 c0 -5 -4 -10 -10 -10 -5 0 -10 5 -10 10 0 6 5 10 10 10
6 0 10 -4 10 -10z m-88 -922 c-7 -7 -12 -22 -12 -35 0 -13 -4 -23 -10 -23 -16
0 -12 37 6 54 8 9 18 16 22 16 3 0 1 -5 -6 -12z m58 -53 c-11 -13 -15 -13 -21
-3 -5 7 -9 18 -9 23 0 6 5 3 10 -5 8 -13 10 -12 10 5 0 14 3 16 12 7 8 -8 8
-15 -2 -27z"/>
<path d="M2517 4059 c4 -13 8 -18 11 -10 2 7 -1 18 -6 23 -8 8 -9 4 -5 -13z"/>
<path d="M1585 3795 c-33 -8 -65 -14 -72 -14 -7 -1 -10 -7 -8 -13 6 -16 -3
-29 -36 -50 -15 -9 -29 -27 -31 -40 -3 -13 -9 -31 -13 -40 -6 -15 -1 -18 30
-18 33 0 36 2 24 16 -11 14 -9 15 22 9 26 -5 39 -2 48 9 17 20 69 20 161 1 62
-13 130 -39 130 -49 0 -2 -15 -1 -33 3 -18 5 -73 5 -122 1 -71 -5 -102 -12
-148 -35 -58 -30 -73 -50 -62 -85 6 -18 35 -27 69 -21 19 4 46 -11 40 -21 -5
-7 -1 -9 9 -5 10 4 14 2 11 -6 -3 -8 6 -13 22 -15 14 -1 33 -6 42 -11 18 -10
98 10 116 30 8 9 6 10 -11 6 -13 -3 -26 -1 -29 4 -4 7 39 14 49 7 1 -1 11 4
23 10 33 18 44 3 29 -41 -12 -35 -12 -37 10 -43 27 -7 65 11 65 30 0 7 10 18
23 25 20 11 23 19 22 77 0 35 -3 64 -7 64 -5 0 -8 8 -8 19 0 10 -7 24 -15 31
-18 15 -20 46 -2 53 7 3 4 6 -6 6 -10 1 -16 5 -12 10 3 5 -4 12 -15 16 -11 3
-20 10 -20 14 0 4 -26 14 -57 21 -32 7 -62 17 -67 22 -6 4 -30 8 -55 8 -29 0
-41 3 -33 9 11 7 10 10 -3 15 -9 3 -17 6 -18 5 -1 0 -29 -7 -62 -14z m55 -253
c0 -26 37 -62 64 -62 31 0 76 36 76 61 0 24 9 24 39 -1 33 -28 21 -44 -46 -63
-75 -21 -113 -21 -158 0 -39 19 -42 28 -19 61 18 27 44 29 44 4z m110 4 c0 -3
-4 -8 -10 -11 -5 -3 -10 -1 -10 4 0 6 5 11 10 11 6 0 10 -2 10 -4z m-35 -106
c-3 -5 -11 -10 -16 -10 -6 0 -7 5 -4 10 3 6 11 10 16 10 6 0 7 -4 4 -10z"/>
<path d="M2196 3401 c-3 -5 1 -11 9 -14 9 -4 12 -1 8 9 -6 16 -10 17 -17 5z"/>
<path d="M2752 3280 c0 -14 2 -19 5 -12 2 6 2 18 0 25 -3 6 -5 1 -5 -13z"/>
<path d="M2190 3279 c0 -5 5 -7 10 -4 6 3 10 8 10 11 0 2 -4 4 -10 4 -5 0 -10
-5 -10 -11z"/>
<path d="M2420 3270 c0 -5 7 -10 16 -10 8 0 12 5 9 10 -3 6 -10 10 -16 10 -5
0 -9 -4 -9 -10z"/>
<path d="M2755 3220 c4 -6 11 -8 16 -5 14 9 11 15 -7 15 -8 0 -12 -5 -9 -10z"/>
<path d="M2227 3193 c-3 -5 5 -16 18 -25 23 -17 23 -17 11 7 -11 25 -21 31
-29 18z"/>
<path d="M2670 3065 c-14 -16 -3 -20 19 -6 8 5 9 11 3 15 -5 3 -15 -1 -22 -9z"/>
<path d="M2685 3020 c3 -5 8 -10 11 -10 2 0 4 5 4 10 0 6 -5 10 -11 10 -5 0
-7 -4 -4 -10z"/>
<path d="M1406 2924 c-4 -9 -4 -19 -2 -21 8 -8 26 8 26 23 0 19 -16 18 -24 -2z"/>
<path d="M2646 2927 c3 -10 9 -15 12 -12 3 3 0 11 -7 18 -10 9 -11 8 -5 -6z"/>
<path d="M1316 2891 c-3 -5 1 -12 10 -15 22 -8 25 -4 9 11 -8 7 -16 9 -19 4z"/>
<path d="M1455 2891 c-3 -5 -2 -12 3 -15 5 -3 9 1 9 9 0 17 -3 19 -12 6z"/>
<path d="M2613 2873 c-17 -6 -17 -33 0 -33 7 0 13 9 13 20 0 11 0 20 -1 19 0
0 -6 -3 -12 -6z"/>
<path d="M1405 2840 c-3 -5 -2 -10 4 -10 5 0 13 5 16 10 3 6 2 10 -4 10 -5 0
-13 -4 -16 -10z"/>
<path d="M1445 2840 c3 -5 2 -10 -3 -10 -14 0 -9 -33 6 -43 6 -4 20 -3 30 2
14 8 14 11 2 12 -8 1 -18 1 -23 0 -4 -1 -5 10 -1 24 4 16 2 25 -6 25 -6 0 -8
-4 -5 -10z"/>
<path d="M1375 2820 c3 -5 8 -10 11 -10 2 0 4 5 4 10 0 6 -5 10 -11 10 -5 0
-7 -4 -4 -10z"/>
<path d="M2605 2811 c-16 -19 -16 -20 2 -18 11 0 19 8 19 19 0 22 1 22 -21 -1z"/>
<path d="M1523 2760 c3 -10 0 -21 -7 -23 -6 -2 -7 -8 -3 -13 10 -10 27 14 27
39 0 9 -5 17 -11 17 -6 0 -9 -9 -6 -20z"/>
<path d="M1440 2700 c0 -5 5 -10 10 -10 6 0 10 5 10 10 0 6 -4 10 -10 10 -5 0
-10 -4 -10 -10z"/>
<path d="M1973 2564 c-7 -3 -9 -12 -6 -20 3 -8 0 -14 -6 -14 -6 0 -11 -4 -11
-8 0 -4 9 -8 20 -8 11 0 20 3 20 7 0 4 31 7 70 6 38 0 72 2 76 5 11 12 -7 30
-19 20 -12 -10 -41 -9 -89 2 -17 4 -28 2 -28 -4 0 -6 -5 -8 -10 -5 -6 4 -8 11
-5 16 7 10 6 10 -12 3z"/>
<path d="M2135 2470 c-9 -15 -1 -23 21 -18 15 3 16 4 1 16 -11 9 -17 10 -22 2z"/>
<path d="M1844 1525 c11 -8 24 -15 30 -15 5 0 1 7 -10 15 -10 8 -23 14 -29 14
-5 0 -1 -6 9 -14z"/>
<path d="M1830 1503 c8 -3 24 -13 35 -22 20 -16 20 -16 1 7 -11 12 -26 22 -35
21 -14 0 -14 -1 -1 -6z"/>
<path d="M1920 1385 c0 -9 6 -12 15 -9 8 4 12 10 9 15 -8 14 -24 10 -24 -6z"/>
</g>
</svg>
